<svg xmlns="http://www.w3.org/2000/svg" width="114.393" height="27.732" viewBox="0 0 114.393 27.732">
  <g id="Group_44" data-name="Group 44" transform="translate(-1291.487 -1001.354)">
    <g id="Group_43" data-name="Group 43">
      <path id="Path_29" data-name="Path 29" d="M1400.681,1025.619H1296.687a5.215,5.215,0,0,1-5.2-5.2v3.467a5.215,5.215,0,0,0,5.2,5.2h103.994a5.214,5.214,0,0,0,5.2-5.2v-3.467A5.214,5.214,0,0,1,1400.681,1025.619Z" fill="#21200f"/>
      <path id="Path_30" data-name="Path 30" d="M1400.681,1022.153H1296.687a5.215,5.215,0,0,1-5.2-5.2v3.466a5.215,5.215,0,0,0,5.2,5.2h103.994a5.214,5.214,0,0,0,5.2-5.2v-3.466A5.214,5.214,0,0,1,1400.681,1022.153Z" fill="#5b5704"/>
      <path id="Path_31" data-name="Path 31" d="M1400.681,1001.354H1296.687a5.215,5.215,0,0,0-5.2,5.2v10.4a5.215,5.215,0,0,0,5.2,5.2h103.994a5.214,5.214,0,0,0,5.2-5.2v-10.4A5.214,5.214,0,0,0,1400.681,1001.354Z" fill="#7c7823"/>
    </g>
  </g>
</svg>
