<svg xmlns="http://www.w3.org/2000/svg" width="114.393" height="27.732" viewBox="0 0 114.393 27.732">
  <g id="Group_48" data-name="Group 48" transform="translate(-1418.781 -1001.354)">
    <g id="Group_47" data-name="Group 47">
      <path id="Path_32" data-name="Path 32" d="M1527.975,1025.619H1423.98a5.215,5.215,0,0,1-5.2-5.2v3.467a5.215,5.215,0,0,0,5.2,5.2h103.995a5.215,5.215,0,0,0,5.2-5.2v-3.467A5.215,5.215,0,0,1,1527.975,1025.619Z" fill="#3a0a00"/>
      <path id="Path_33" data-name="Path 33" d="M1527.975,1022.153H1423.98a5.215,5.215,0,0,1-5.2-5.2v3.466a5.215,5.215,0,0,0,5.2,5.2h103.995a5.215,5.215,0,0,0,5.2-5.2v-3.466A5.215,5.215,0,0,1,1527.975,1022.153Z" fill="#8e1e03"/>
      <path id="Path_34" data-name="Path 34" d="M1527.975,1001.354H1423.98a5.215,5.215,0,0,0-5.2,5.2v10.4a5.215,5.215,0,0,0,5.2,5.2h103.995a5.215,5.215,0,0,0,5.2-5.2v-10.4A5.215,5.215,0,0,0,1527.975,1001.354Z" fill="#e25833"/>
    </g>
  </g>
</svg>
